<svg xmlns="http://www.w3.org/2000/svg" width="23" height="23" viewBox="0 0 23 23" fill="none">
  <circle cx="11.5" cy="11.5" r="11.5" fill="#E0E0E0"/>
  <path d="M6.79712 9H16.2029C16.3532 8.99946 16.5006 9.0446 16.6279 9.13018C16.7553 9.21576 16.8573 9.33827 16.9222 9.48348C16.9871 9.62869 17.0122 9.79064 16.9945 9.95051C16.9769 10.1104 16.9172 10.2616 16.8225 10.3866L12.1196 15.6817C12.0452 15.781 11.9509 15.8612 11.8436 15.9163C11.7364 15.9714 11.619 16 11.5 16C11.381 16 11.2636 15.9714 11.1564 15.9163C11.0491 15.8612 10.9548 15.781 10.8804 15.6817L6.17748 10.3866C6.08277 10.2616 6.02313 10.1104 6.00549 9.95051C5.98785 9.79064 6.01293 9.62869 6.07782 9.48348C6.14271 9.33827 6.24475 9.21576 6.37207 9.13018C6.4994 9.0446 6.64679 8.99946 6.79712 9Z" fill="#495980"/>
</svg>