<svg width="48" height="48" viewBox="0 0 48 48" fill="none" xmlns="http://www.w3.org/2000/svg">
<g id="button" filter="url(#filter0_d_1_1724)">
<rect x="1" y="1" width="44" height="44" rx="10" fill="#FAF9F9" shape-rendering="crispEdges"/>
<g id="Layer 2">
<path id="Vector" d="M23 35C25.3734 35 27.6935 34.2962 29.6668 32.9776C31.6402 31.6591 33.1783 29.7849 34.0866 27.5922C34.9948 25.3995 35.2324 22.9867 34.7694 20.6589C34.3064 18.3312 33.1635 16.193 31.4853 14.5147C29.8071 12.8365 27.6689 11.6936 25.3411 11.2306C23.0133 10.7676 20.6005 11.0052 18.4078 11.9135C16.2151 12.8217 14.3409 14.3598 13.0224 16.3332C11.7038 18.3066 11 20.6266 11 23C11 26.1826 12.2643 29.2349 14.5147 31.4853C16.7652 33.7357 19.8174 35 23 35ZM16.7709 23.3164C16.9753 23.1132 17.2518 22.9991 17.54 22.9991C17.8282 22.9991 18.1047 23.1132 18.3091 23.3164L20.8182 25.8255L27.1345 19.5091C27.3432 19.3304 27.6117 19.237 27.8862 19.2476C28.1608 19.2582 28.4212 19.372 28.6155 19.5663C28.8098 19.7606 28.9236 20.021 28.9342 20.2956C28.9448 20.5701 28.8514 20.8386 28.6727 21.0473L21.5818 28.1382C21.3774 28.3414 21.1009 28.4554 20.8127 28.4554C20.5245 28.4554 20.248 28.3414 20.0436 28.1382L16.7709 24.8655C16.6687 24.764 16.5875 24.6434 16.5321 24.5105C16.4767 24.3775 16.4482 24.2349 16.4482 24.0909C16.4482 23.9469 16.4767 23.8043 16.5321 23.6714C16.5875 23.5384 16.6687 23.4178 16.7709 23.3164Z" fill="#E0E0E0"/>
</g>
</g>
<defs>
<filter id="filter0_d_1_1724" x="0" y="0" width="48" height="48" filterUnits="userSpaceOnUse" color-interpolation-filters="sRGB">
<feFlood flood-opacity="0" result="BackgroundImageFix"/>
<feColorMatrix in="SourceAlpha" type="matrix" values="0 0 0 0 0 0 0 0 0 0 0 0 0 0 0 0 0 0 127 0" result="hardAlpha"/>
<feOffset dx="1" dy="1"/>
<feGaussianBlur stdDeviation="1"/>
<feComposite in2="hardAlpha" operator="out"/>
<feColorMatrix type="matrix" values="0 0 0 0 0 0 0 0 0 0 0 0 0 0 0 0 0 0 0.2 0"/>
<feBlend mode="normal" in2="BackgroundImageFix" result="effect1_dropShadow_1_1724"/>
<feBlend mode="normal" in="SourceGraphic" in2="effect1_dropShadow_1_1724" result="shape"/>
</filter>
</defs>
</svg>
