<svg width="36" height="36" viewBox="0 0 36 36" fill="none" xmlns="http://www.w3.org/2000/svg">
<g id="Isolation_Mode" clip-path="url(#clip0_34_2189)">
<path id="Vector" d="M35.1587 20.4981C36.7089 10.852 30.1459 1.77554 20.4997 0.225293C10.8536 -1.32495 1.77713 5.23807 0.226884 14.8842C-1.32336 24.5304 5.23966 33.6068 14.8858 35.1571C24.5319 36.7073 33.6084 30.1443 35.1587 20.4981Z" fill="#00D95F"/>
<path id="Vector_2" d="M8.12988 27.6999L9.60988 22.1999C8.76988 20.6899 8.33988 18.9999 8.33988 17.2899C8.33988 11.6899 12.8999 7.12988 18.4999 7.12988C24.0999 7.12988 28.6599 11.6899 28.6599 17.2899C28.6599 22.8899 24.0999 27.4499 18.4999 27.4499C16.8199 27.4499 15.1599 27.0299 13.6699 26.2199L8.13988 27.6999H8.12988ZM13.9399 24.1599L14.2899 24.3699C15.5699 25.1299 17.0199 25.5299 18.4999 25.5299C23.0399 25.5299 26.7399 21.8299 26.7399 17.2899C26.7399 12.7499 23.0399 9.04988 18.4999 9.04988C13.9599 9.04988 10.2599 12.7499 10.2599 17.2899C10.2599 18.7899 10.6799 20.2699 11.4699 21.5599L11.6799 21.9099L10.8599 24.9799L13.9499 24.1499L13.9399 24.1599Z" fill="white"/>
<path id="Vector_3" fill-rule="evenodd" clip-rule="evenodd" d="M22.2701 18.7001C21.8501 18.4501 21.3101 18.1701 20.8101 18.3701C20.4301 18.5201 20.1901 19.1201 19.9501 19.4201C19.8201 19.5801 19.6701 19.6001 19.4801 19.5201C18.0601 18.9501 16.9701 18.0101 16.1901 16.7001C16.0601 16.5001 16.0801 16.3401 16.2401 16.1501C16.4801 15.8701 16.7701 15.5601 16.8401 15.1801C16.9001 14.8001 16.7301 14.3701 16.5701 14.0301C16.3701 13.6001 16.1501 12.9901 15.7201 12.7501C15.3301 12.5301 14.8101 12.6501 14.4601 12.9401C13.8601 13.4301 13.5601 14.2001 13.5701 14.9701C13.5701 15.1901 13.6001 15.4001 13.6501 15.6101C13.7701 16.1101 14.0101 16.5901 14.2701 17.0301C14.4701 17.3701 14.6801 17.7001 14.9101 18.0101C15.6701 19.0401 16.6101 19.9401 17.7101 20.6101C18.2601 20.9401 18.8401 21.2401 19.4501 21.4401C20.1301 21.6701 20.7401 21.9001 21.4801 21.7601C22.2501 21.6101 23.0101 21.1401 23.3201 20.3901C23.4101 20.1701 23.4601 19.9201 23.4101 19.6901C23.3101 19.2101 22.6501 18.9201 22.2601 18.6901L22.2701 18.7001Z" fill="white"/>
</g>
<defs>
<clipPath id="clip0_34_2189">
<rect width="35.38" height="35.38" fill="white"/>
</clipPath>
</defs>
</svg>
